<svg xmlns="http://www.w3.org/2000/svg" xmlns:xlink="http://www.w3.org/1999/xlink" width="800" zoomAndPan="magnify" viewBox="0 0 600 149.999998" height="200" preserveAspectRatio="xMidYMid meet" version="1.0"><defs><g/></defs><rect x="-60" width="720" fill="#ffffff" y="-15" height="179.999997" fill-opacity="1"/><rect x="-60" width="720" fill="#ffffff" y="-15" height="179.999997" fill-opacity="1"/><g fill="#000000" fill-opacity="0.4"><g transform="translate(34.738575, 75.301964)"><g><path d="M 90.71875 -39.484375 C 90.71875 -48.0625 83.5625 -54 75 -54 L 68 -54 C 59.046875 -54 52.28125 -47.609375 52.28125 -39.484375 L 52.203125 -14.671875 C 52.203125 -11.4375 50.328125 -9.859375 46.640625 -9.859375 C 42.796875 -9.859375 40.84375 -11.4375 40.84375 -14.671875 L 41 -39.484375 C 41.0625 -48.0625 33.625 -54 25.203125 -54 L 18.125 -54 C 9.625 -54 2.40625 -48.140625 2.40625 -39.484375 L 2.40625 -0.078125 L 12.640625 -0.078125 L 12.640625 -39.484375 C 12.640625 -42.71875 14.4375 -44.375 18.125 -44.375 L 25.203125 -44.375 C 28.890625 -44.375 30.765625 -42.71875 30.765625 -39.484375 L 30.765625 -14.671875 C 30.765625 -5.859375 37.828125 -0.078125 46.640625 -0.078125 C 55.140625 -0.078125 62.359375 -6.171875 62.359375 -14.671875 L 62.4375 -39.484375 C 62.4375 -42.71875 64.3125 -44.375 68 -44.375 L 75 -44.375 C 78.671875 -44.375 80.5625 -42.71875 80.5625 -39.484375 L 80.5625 -0.078125 L 90.71875 -0.078125 Z M 90.71875 -39.484375 "/></g></g></g><g fill="#000000" fill-opacity="0.4"><g transform="translate(127.563206, 75.301964)"><g><path d="M 13.921875 -54 L 3.6875 -54 L 3.6875 -0.078125 L 13.921875 -0.078125 Z M 13.921875 -54 "/></g></g></g><g fill="#000000" fill-opacity="0.4"><g transform="translate(142.45709, 75.301964)"><g><path d="M 66.421875 -54 L 3.6875 -54 L 3.6875 -44.375 L 29.859375 -44.375 L 29.859375 -0.078125 L 39.9375 -0.078125 L 39.9375 -44.375 L 66.421875 -44.375 Z M 66.421875 -54 "/></g></g></g><g fill="#000000" fill-opacity="0.4"><g transform="translate(208.878549, 75.301964)"><g><path d="M 69.203125 -39.484375 C 69.203125 -47.53125 61.296875 -54 53.484375 -54 L 19.484375 -54 C 11.515625 -54 3.6875 -47.53125 3.6875 -39.484375 L 3.6875 -14.671875 C 3.6875 -6.09375 10.75 -0.078125 19.484375 -0.078125 L 53.484375 -0.078125 C 61.984375 -0.078125 69.203125 -6.171875 69.203125 -14.671875 Z M 59.046875 -14.671875 C 59.046875 -11.4375 57.171875 -9.859375 53.484375 -9.859375 L 19.484375 -9.859375 C 15.796875 -9.859375 13.921875 -11.4375 13.921875 -14.671875 L 13.921875 -39.484375 C 13.921875 -42.125 16.78125 -44.375 19.484375 -44.375 L 53.484375 -44.375 C 56.1875 -44.375 59.046875 -42.125 59.046875 -39.484375 Z M 59.046875 -14.671875 "/></g></g></g><g fill="#000000" fill-opacity="0.4"><g transform="translate(278.685033, 75.301964)"><g/></g></g><g fill="#000000" fill-opacity="0.4"><g transform="translate(304.410984, 75.301964)"><g><path d="M 59.5 -9.859375 L 19.484375 -9.859375 C 15.796875 -9.859375 13.921875 -11.4375 13.921875 -14.671875 L 13.921875 -54 L 3.6875 -54 L 3.6875 -14.671875 C 3.6875 -6.09375 10.75 -0.078125 19.484375 -0.078125 L 59.5 -0.078125 Z M 59.5 -9.859375 "/></g></g></g><g fill="#000000" fill-opacity="0.4"><g transform="translate(363.836716, 75.301964)"><g><path d="M 56.640625 -39.421875 C 54.15625 -49.125 48.890625 -53.9375 40.84375 -53.9375 L 27.15625 -53.9375 C 19.109375 -53.9375 13.921875 -49.125 11.4375 -39.421875 L 1.28125 0 L 12.109375 0 L 22.265625 -39.421875 C 23.09375 -42.65625 24.96875 -44.296875 27.828125 -44.296875 L 40.234375 -44.296875 C 42.953125 -44.296875 44.75 -42.65625 45.65625 -39.421875 L 47.6875 -31.96875 L 24.375 -31.96875 L 22.046875 -22.046875 L 50.328125 -22.046875 L 55.96875 0 L 66.796875 0 Z M 56.640625 -39.421875 "/></g></g></g><g fill="#000000" fill-opacity="0.4"><g transform="translate(429.35551, 75.301964)"><g><path d="M 69.203125 -14.671875 C 69.203125 -21.515625 68.453125 -23.84375 65.21875 -27.078125 C 67.84375 -29.78125 69.203125 -32.953125 69.203125 -36.484375 L 69.203125 -39.421875 C 69.203125 -47.921875 61.984375 -53.9375 53.484375 -53.9375 L 3.3125 -53.9375 L 3.3125 -0.078125 L 53.484375 -0.078125 C 61.984375 -0.078125 69.203125 -6.09375 69.203125 -14.671875 Z M 59.046875 -14.671875 C 59.046875 -11.4375 57.171875 -9.859375 53.484375 -9.859375 L 13.46875 -9.859375 L 13.46875 -44.296875 L 53.484375 -44.296875 C 57.171875 -44.296875 59.046875 -42.65625 59.046875 -39.421875 L 59.046875 -36.484375 C 59.046875 -33.46875 57.171875 -31.96875 53.484375 -31.96875 L 17.59375 -31.96875 L 17.59375 -22.046875 L 53.484375 -22.046875 C 56.40625 -22.046875 59.046875 -20.390625 59.046875 -17.59375 Z M 59.046875 -14.671875 "/></g></g></g><g fill="#000000" fill-opacity="0.4"><g transform="translate(499.086738, 75.301964)"><g><path d="M 67.46875 -54 L 19.484375 -54 C 11.515625 -54 3.6875 -47.53125 3.6875 -39.484375 L 3.6875 -36.78125 C 3.6875 -28.125 10.75 -22.34375 19.484375 -22.34375 L 51.53125 -22.265625 C 55.203125 -22.265625 57.09375 -20.6875 57.09375 -17.453125 L 57.09375 -14.671875 C 57.09375 -11.953125 54.234375 -9.703125 51.53125 -9.703125 L 3.53125 -9.703125 L 3.53125 -0.078125 L 51.53125 -0.078125 C 59.421875 -0.078125 67.25 -6.390625 67.25 -14.671875 L 67.25 -17.453125 C 67.25 -25.953125 60.171875 -31.890625 51.53125 -31.890625 L 19.484375 -31.96875 C 15.796875 -31.96875 13.921875 -33.546875 13.921875 -36.78125 L 13.921875 -39.484375 C 13.921875 -42.125 16.78125 -44.375 19.484375 -44.375 L 67.46875 -44.375 Z M 67.46875 -54 "/></g></g></g><g fill="#000000" fill-opacity="1"><g transform="translate(31.414035, 71.977425)"><g><path d="M 90.71875 -39.484375 C 90.71875 -48.0625 83.5625 -54 75 -54 L 68 -54 C 59.046875 -54 52.28125 -47.609375 52.28125 -39.484375 L 52.203125 -14.671875 C 52.203125 -11.4375 50.328125 -9.859375 46.640625 -9.859375 C 42.796875 -9.859375 40.84375 -11.4375 40.84375 -14.671875 L 41 -39.484375 C 41.0625 -48.0625 33.625 -54 25.203125 -54 L 18.125 -54 C 9.625 -54 2.40625 -48.140625 2.40625 -39.484375 L 2.40625 -0.078125 L 12.640625 -0.078125 L 12.640625 -39.484375 C 12.640625 -42.71875 14.4375 -44.375 18.125 -44.375 L 25.203125 -44.375 C 28.890625 -44.375 30.765625 -42.71875 30.765625 -39.484375 L 30.765625 -14.671875 C 30.765625 -5.859375 37.828125 -0.078125 46.640625 -0.078125 C 55.140625 -0.078125 62.359375 -6.171875 62.359375 -14.671875 L 62.4375 -39.484375 C 62.4375 -42.71875 64.3125 -44.375 68 -44.375 L 75 -44.375 C 78.671875 -44.375 80.5625 -42.71875 80.5625 -39.484375 L 80.5625 -0.078125 L 90.71875 -0.078125 Z M 90.71875 -39.484375 "/></g></g></g><g fill="#000000" fill-opacity="1"><g transform="translate(124.238666, 71.977425)"><g><path d="M 13.921875 -54 L 3.6875 -54 L 3.6875 -0.078125 L 13.921875 -0.078125 Z M 13.921875 -54 "/></g></g></g><g fill="#000000" fill-opacity="1"><g transform="translate(139.13255, 71.977425)"><g><path d="M 66.421875 -54 L 3.6875 -54 L 3.6875 -44.375 L 29.859375 -44.375 L 29.859375 -0.078125 L 39.9375 -0.078125 L 39.9375 -44.375 L 66.421875 -44.375 Z M 66.421875 -54 "/></g></g></g><g fill="#000000" fill-opacity="1"><g transform="translate(205.55401, 71.977425)"><g><path d="M 69.203125 -39.484375 C 69.203125 -47.53125 61.296875 -54 53.484375 -54 L 19.484375 -54 C 11.515625 -54 3.6875 -47.53125 3.6875 -39.484375 L 3.6875 -14.671875 C 3.6875 -6.09375 10.75 -0.078125 19.484375 -0.078125 L 53.484375 -0.078125 C 61.984375 -0.078125 69.203125 -6.171875 69.203125 -14.671875 Z M 59.046875 -14.671875 C 59.046875 -11.4375 57.171875 -9.859375 53.484375 -9.859375 L 19.484375 -9.859375 C 15.796875 -9.859375 13.921875 -11.4375 13.921875 -14.671875 L 13.921875 -39.484375 C 13.921875 -42.125 16.78125 -44.375 19.484375 -44.375 L 53.484375 -44.375 C 56.1875 -44.375 59.046875 -42.125 59.046875 -39.484375 Z M 59.046875 -14.671875 "/></g></g></g><g fill="#000000" fill-opacity="1"><g transform="translate(275.360493, 71.977425)"><g/></g></g><g fill="#000000" fill-opacity="1"><g transform="translate(301.086444, 71.977425)"><g><path d="M 59.5 -9.859375 L 19.484375 -9.859375 C 15.796875 -9.859375 13.921875 -11.4375 13.921875 -14.671875 L 13.921875 -54 L 3.6875 -54 L 3.6875 -14.671875 C 3.6875 -6.09375 10.75 -0.078125 19.484375 -0.078125 L 59.5 -0.078125 Z M 59.5 -9.859375 "/></g></g></g><g fill="#000000" fill-opacity="1"><g transform="translate(360.512176, 71.977425)"><g><path d="M 56.640625 -39.421875 C 54.15625 -49.125 48.890625 -53.9375 40.84375 -53.9375 L 27.15625 -53.9375 C 19.109375 -53.9375 13.921875 -49.125 11.4375 -39.421875 L 1.28125 0 L 12.109375 0 L 22.265625 -39.421875 C 23.09375 -42.65625 24.96875 -44.296875 27.828125 -44.296875 L 40.234375 -44.296875 C 42.953125 -44.296875 44.75 -42.65625 45.65625 -39.421875 L 47.6875 -31.96875 L 24.375 -31.96875 L 22.046875 -22.046875 L 50.328125 -22.046875 L 55.96875 0 L 66.796875 0 Z M 56.640625 -39.421875 "/></g></g></g><g fill="#000000" fill-opacity="1"><g transform="translate(426.030971, 71.977425)"><g><path d="M 69.203125 -14.671875 C 69.203125 -21.515625 68.453125 -23.84375 65.21875 -27.078125 C 67.84375 -29.78125 69.203125 -32.953125 69.203125 -36.484375 L 69.203125 -39.421875 C 69.203125 -47.921875 61.984375 -53.9375 53.484375 -53.9375 L 3.3125 -53.9375 L 3.3125 -0.078125 L 53.484375 -0.078125 C 61.984375 -0.078125 69.203125 -6.09375 69.203125 -14.671875 Z M 59.046875 -14.671875 C 59.046875 -11.4375 57.171875 -9.859375 53.484375 -9.859375 L 13.46875 -9.859375 L 13.46875 -44.296875 L 53.484375 -44.296875 C 57.171875 -44.296875 59.046875 -42.65625 59.046875 -39.421875 L 59.046875 -36.484375 C 59.046875 -33.46875 57.171875 -31.96875 53.484375 -31.96875 L 17.59375 -31.96875 L 17.59375 -22.046875 L 53.484375 -22.046875 C 56.40625 -22.046875 59.046875 -20.390625 59.046875 -17.59375 Z M 59.046875 -14.671875 "/></g></g></g><g fill="#000000" fill-opacity="1"><g transform="translate(495.762199, 71.977425)"><g><path d="M 67.46875 -54 L 19.484375 -54 C 11.515625 -54 3.6875 -47.53125 3.6875 -39.484375 L 3.6875 -36.78125 C 3.6875 -28.125 10.75 -22.34375 19.484375 -22.34375 L 51.53125 -22.265625 C 55.203125 -22.265625 57.09375 -20.6875 57.09375 -17.453125 L 57.09375 -14.671875 C 57.09375 -11.953125 54.234375 -9.703125 51.53125 -9.703125 L 3.53125 -9.703125 L 3.53125 -0.078125 L 51.53125 -0.078125 C 59.421875 -0.078125 67.25 -6.390625 67.25 -14.671875 L 67.25 -17.453125 C 67.25 -25.953125 60.171875 -31.890625 51.53125 -31.890625 L 19.484375 -31.96875 C 15.796875 -31.96875 13.921875 -33.546875 13.921875 -36.78125 L 13.921875 -39.484375 C 13.921875 -42.125 16.78125 -44.375 19.484375 -44.375 L 67.46875 -44.375 Z M 67.46875 -54 "/></g></g></g><g fill="#000000" fill-opacity="0.4"><g transform="translate(30.51193, 136.672854)"><g><path d="M 2.03125 -27.953125 L 12.234375 -27.953125 C 15.078125 -27.953125 17.378906 -27.21875 19.140625 -25.75 C 20.898438 -24.28125 21.78125 -22.144531 21.78125 -19.34375 C 21.78125 -16.539062 20.882812 -14.34375 19.09375 -12.75 C 17.3125 -11.15625 15.023438 -10.359375 12.234375 -10.359375 L 8.40625 -10.359375 L 8.40625 0 L 2.03125 0 Z M 8.40625 -15.453125 L 10.203125 -15.453125 C 11.617188 -15.453125 12.785156 -15.738281 13.703125 -16.3125 C 14.617188 -16.882812 15.078125 -17.828125 15.078125 -19.140625 C 15.078125 -20.472656 14.617188 -21.425781 13.703125 -22 C 12.785156 -22.570312 11.617188 -22.859375 10.203125 -22.859375 L 8.40625 -22.859375 Z M 8.40625 -15.453125 "/></g></g></g><g fill="#000000" fill-opacity="0.4"><g transform="translate(60.85786, 136.672854)"><g><path d="M 18.015625 -27.953125 L 18.015625 -22.359375 L 8.40625 -22.359375 L 8.40625 -16.796875 L 17.609375 -16.796875 L 17.609375 -11.21875 L 8.40625 -11.21875 L 8.40625 -5.59375 L 18.015625 -5.59375 L 18.015625 0 L 2.03125 0 L 2.03125 -27.953125 Z M 18.015625 -27.953125 "/></g></g></g><g fill="#000000" fill-opacity="0.4"><g transform="translate(88.291212, 136.672854)"><g><path d="M 2.03125 -27.953125 L 12.03125 -27.953125 C 14.71875 -27.953125 16.90625 -27.234375 18.59375 -25.796875 C 20.289062 -24.359375 21.140625 -22.304688 21.140625 -19.640625 C 21.140625 -17.585938 20.625 -15.863281 19.59375 -14.46875 C 18.570312 -13.082031 17.175781 -12.109375 15.40625 -11.546875 L 25.03125 0 L 16.9375 0 L 8.40625 -11.046875 L 8.40625 0 L 2.03125 0 Z M 8.40625 -15.546875 L 9.140625 -15.546875 C 9.734375 -15.546875 10.234375 -15.554688 10.640625 -15.578125 C 11.046875 -15.597656 11.507812 -15.675781 12.03125 -15.8125 C 12.550781 -15.945312 12.96875 -16.140625 13.28125 -16.390625 C 13.59375 -16.640625 13.863281 -17 14.09375 -17.46875 C 14.320312 -17.945312 14.4375 -18.523438 14.4375 -19.203125 C 14.4375 -19.878906 14.320312 -20.453125 14.09375 -20.921875 C 13.863281 -21.398438 13.59375 -21.765625 13.28125 -22.015625 C 12.96875 -22.265625 12.550781 -22.457031 12.03125 -22.59375 C 11.507812 -22.726562 11.046875 -22.804688 10.640625 -22.828125 C 10.234375 -22.847656 9.734375 -22.859375 9.140625 -22.859375 L 8.40625 -22.859375 Z M 8.40625 -15.546875 "/></g></g></g><g fill="#000000" fill-opacity="0.4"><g transform="translate(120.330502, 136.672854)"><g><path d="M 18.1875 -27.953125 L 18.1875 -22.359375 L 8.40625 -22.359375 L 8.40625 -16.796875 L 17.453125 -16.796875 L 17.453125 -11.21875 L 8.40625 -11.21875 L 8.40625 0 L 2.03125 0 L 2.03125 -27.953125 Z M 18.1875 -27.953125 "/></g></g></g><g fill="#000000" fill-opacity="0.4"><g transform="translate(147.323588, 136.672854)"><g><path d="M 0.78125 -13.984375 C 0.78125 -18.023438 2.15625 -21.445312 4.90625 -24.25 C 7.664062 -27.050781 10.988281 -28.453125 14.875 -28.453125 C 18.78125 -28.453125 22.097656 -27.054688 24.828125 -24.265625 C 27.554688 -21.484375 28.921875 -18.054688 28.921875 -13.984375 C 28.921875 -9.898438 27.578125 -6.460938 24.890625 -3.671875 C 22.203125 -0.878906 18.863281 0.515625 14.875 0.515625 C 10.78125 0.515625 7.40625 -0.867188 4.75 -3.640625 C 2.101562 -6.410156 0.78125 -9.859375 0.78125 -13.984375 Z M 7.65625 -13.984375 C 7.65625 -12.515625 7.878906 -11.175781 8.328125 -9.96875 C 8.785156 -8.757812 9.578125 -7.738281 10.703125 -6.90625 C 11.828125 -6.070312 13.21875 -5.65625 14.875 -5.65625 C 17.238281 -5.65625 19.023438 -6.46875 20.234375 -8.09375 C 21.441406 -9.71875 22.046875 -11.679688 22.046875 -13.984375 C 22.046875 -16.265625 21.429688 -18.222656 20.203125 -19.859375 C 18.972656 -21.503906 17.195312 -22.328125 14.875 -22.328125 C 12.570312 -22.328125 10.789062 -21.503906 9.53125 -19.859375 C 8.28125 -18.222656 7.65625 -16.265625 7.65625 -13.984375 Z M 7.65625 -13.984375 "/></g></g></g><g fill="#000000" fill-opacity="0.4"><g transform="translate(184.815495, 136.672854)"><g><path d="M 2.03125 -27.953125 L 12.03125 -27.953125 C 14.71875 -27.953125 16.90625 -27.234375 18.59375 -25.796875 C 20.289062 -24.359375 21.140625 -22.304688 21.140625 -19.640625 C 21.140625 -17.585938 20.625 -15.863281 19.59375 -14.46875 C 18.570312 -13.082031 17.175781 -12.109375 15.40625 -11.546875 L 25.03125 0 L 16.9375 0 L 8.40625 -11.046875 L 8.40625 0 L 2.03125 0 Z M 8.40625 -15.546875 L 9.140625 -15.546875 C 9.734375 -15.546875 10.234375 -15.554688 10.640625 -15.578125 C 11.046875 -15.597656 11.507812 -15.675781 12.03125 -15.8125 C 12.550781 -15.945312 12.96875 -16.140625 13.28125 -16.390625 C 13.59375 -16.640625 13.863281 -17 14.09375 -17.46875 C 14.320312 -17.945312 14.4375 -18.523438 14.4375 -19.203125 C 14.4375 -19.878906 14.320312 -20.453125 14.09375 -20.921875 C 13.863281 -21.398438 13.59375 -21.765625 13.28125 -22.015625 C 12.96875 -22.265625 12.550781 -22.457031 12.03125 -22.59375 C 11.507812 -22.726562 11.046875 -22.804688 10.640625 -22.828125 C 10.234375 -22.847656 9.734375 -22.859375 9.140625 -22.859375 L 8.40625 -22.859375 Z M 8.40625 -15.546875 "/></g></g></g><g fill="#000000" fill-opacity="0.4"><g transform="translate(216.854784, 136.672854)"><g><path d="M 25.140625 0 L 23.8125 -16.5625 L 23.640625 -16.5625 L 17.921875 -0.171875 L 14.125 -0.171875 L 8.40625 -16.5625 L 8.234375 -16.5625 L 6.90625 0 L 0.546875 0 L 3.046875 -27.953125 L 9.828125 -27.953125 L 16.015625 -11.828125 L 22.21875 -27.953125 L 29 -27.953125 L 31.5 0 Z M 25.140625 0 "/></g></g></g><g fill="#000000" fill-opacity="0.4"><g transform="translate(256.683517, 136.672854)"><g><path d="M 16.21875 -27.953125 L 27.5 0 L 20.65625 0 L 18.59375 -5.59375 L 7.953125 -5.59375 L 5.890625 0 L -0.953125 0 L 10.328125 -27.953125 Z M 16.421875 -11.171875 L 13.3125 -19.3125 L 13.25 -19.3125 L 10.125 -11.171875 Z M 16.421875 -11.171875 "/></g></g></g><g fill="#000000" fill-opacity="0.4"><g transform="translate(291.02577, 136.672854)"><g><path d="M 8.40625 -17.34375 L 8.40625 0 L 2.03125 0 L 2.03125 -27.953125 L 8.40625 -27.953125 L 19.515625 -10.609375 L 19.578125 -10.609375 L 19.578125 -27.953125 L 25.953125 -27.953125 L 25.953125 0 L 19.578125 0 L 8.46875 -17.34375 Z M 8.40625 -17.34375 "/></g></g></g><g fill="#000000" fill-opacity="0.4"><g transform="translate(326.790454, 136.672854)"><g><path d="M 16.90625 -5.765625 C 17.875 -5.765625 18.816406 -5.910156 19.734375 -6.203125 C 20.648438 -6.492188 21.320312 -6.773438 21.75 -7.046875 L 22.390625 -7.484375 L 25.09375 -2.0625 C 25.007812 -2 24.882812 -1.910156 24.71875 -1.796875 C 24.5625 -1.679688 24.195312 -1.472656 23.625 -1.171875 C 23.050781 -0.867188 22.4375 -0.601562 21.78125 -0.375 C 21.125 -0.144531 20.265625 0.0546875 19.203125 0.234375 C 18.140625 0.421875 17.046875 0.515625 15.921875 0.515625 C 13.328125 0.515625 10.863281 -0.117188 8.53125 -1.390625 C 6.207031 -2.671875 4.332031 -4.429688 2.90625 -6.671875 C 1.488281 -8.910156 0.78125 -11.328125 0.78125 -13.921875 C 0.78125 -15.890625 1.195312 -17.773438 2.03125 -19.578125 C 2.863281 -21.390625 3.972656 -22.9375 5.359375 -24.21875 C 6.753906 -25.507812 8.378906 -26.535156 10.234375 -27.296875 C 12.085938 -28.066406 13.984375 -28.453125 15.921875 -28.453125 C 17.722656 -28.453125 19.382812 -28.238281 20.90625 -27.8125 C 22.4375 -27.382812 23.519531 -26.957031 24.15625 -26.53125 L 25.09375 -25.875 L 22.390625 -20.453125 C 22.234375 -20.585938 21.992188 -20.75 21.671875 -20.9375 C 21.359375 -21.132812 20.726562 -21.390625 19.78125 -21.703125 C 18.832031 -22.023438 17.875 -22.1875 16.90625 -22.1875 C 15.363281 -22.1875 13.984375 -21.9375 12.765625 -21.4375 C 11.546875 -20.945312 10.582031 -20.296875 9.875 -19.484375 C 9.164062 -18.671875 8.625 -17.796875 8.25 -16.859375 C 7.875 -15.921875 7.6875 -14.960938 7.6875 -13.984375 C 7.6875 -11.867188 8.484375 -9.96875 10.078125 -8.28125 C 11.671875 -6.601562 13.945312 -5.765625 16.90625 -5.765625 Z M 16.90625 -5.765625 "/></g></g></g><g fill="#000000" fill-opacity="0.4"><g transform="translate(360.082849, 136.672854)"><g><path d="M 18.015625 -27.953125 L 18.015625 -22.359375 L 8.40625 -22.359375 L 8.40625 -16.796875 L 17.609375 -16.796875 L 17.609375 -11.21875 L 8.40625 -11.21875 L 8.40625 -5.59375 L 18.015625 -5.59375 L 18.015625 0 L 2.03125 0 L 2.03125 -27.953125 Z M 18.015625 -27.953125 "/></g></g></g><g fill="#000000" fill-opacity="0.4"><g transform="translate(387.516212, 136.672854)"><g/></g></g><g fill="#000000" fill-opacity="0.4"><g transform="translate(404.552344, 136.672854)"><g><path d="M 18.015625 -27.953125 L 18.015625 -22.359375 L 8.40625 -22.359375 L 8.40625 -16.796875 L 17.609375 -16.796875 L 17.609375 -11.21875 L 8.40625 -11.21875 L 8.40625 -5.59375 L 18.015625 -5.59375 L 18.015625 0 L 2.03125 0 L 2.03125 -27.953125 Z M 18.015625 -27.953125 "/></g></g></g><g fill="#000000" fill-opacity="0.4"><g transform="translate(431.985708, 136.672854)"><g><path d="M 8.40625 -17.34375 L 8.40625 0 L 2.03125 0 L 2.03125 -27.953125 L 8.40625 -27.953125 L 19.515625 -10.609375 L 19.578125 -10.609375 L 19.578125 -27.953125 L 25.953125 -27.953125 L 25.953125 0 L 19.578125 0 L 8.46875 -17.34375 Z M 8.40625 -17.34375 "/></g></g></g><g fill="#000000" fill-opacity="0.4"><g transform="translate(467.750369, 136.672854)"><g><path d="M 27.296875 -15.65625 L 27.296875 -9.59375 C 26.578125 -6.269531 25 -3.753906 22.5625 -2.046875 C 20.125 -0.335938 17.398438 0.515625 14.390625 0.515625 C 10.617188 0.515625 7.40625 -0.894531 4.75 -3.71875 C 2.101562 -6.539062 0.78125 -9.953125 0.78125 -13.953125 C 0.78125 -18.015625 2.078125 -21.445312 4.671875 -24.25 C 7.273438 -27.050781 10.515625 -28.453125 14.390625 -28.453125 C 18.929688 -28.453125 22.523438 -26.859375 25.171875 -23.671875 L 21 -19.109375 C 19.507812 -21.503906 17.429688 -22.703125 14.765625 -22.703125 C 12.804688 -22.703125 11.128906 -21.847656 9.734375 -20.140625 C 8.347656 -18.429688 7.65625 -16.367188 7.65625 -13.953125 C 7.65625 -11.585938 8.347656 -9.5625 9.734375 -7.875 C 11.128906 -6.195312 12.804688 -5.359375 14.765625 -5.359375 C 16.390625 -5.359375 17.804688 -5.847656 19.015625 -6.828125 C 20.222656 -7.804688 20.828125 -9.109375 20.828125 -10.734375 L 14.390625 -10.734375 L 14.390625 -15.65625 Z M 27.296875 -15.65625 "/></g></g></g><g fill="#000000" fill-opacity="0.4"><g transform="translate(503.616654, 136.672854)"><g><path d="M 8.40625 -27.953125 L 8.40625 0 L 2.03125 0 L 2.03125 -27.953125 Z M 8.40625 -27.953125 "/></g></g></g><g fill="#000000" fill-opacity="0.4"><g transform="translate(521.838165, 136.672854)"><g><path d="M 8.40625 -17.34375 L 8.40625 0 L 2.03125 0 L 2.03125 -27.953125 L 8.40625 -27.953125 L 19.515625 -10.609375 L 19.578125 -10.609375 L 19.578125 -27.953125 L 25.953125 -27.953125 L 25.953125 0 L 19.578125 0 L 8.46875 -17.34375 Z M 8.40625 -17.34375 "/></g></g></g><g fill="#000000" fill-opacity="0.4"><g transform="translate(557.602872, 136.672854)"><g><path d="M 18.015625 -27.953125 L 18.015625 -22.359375 L 8.40625 -22.359375 L 8.40625 -16.796875 L 17.609375 -16.796875 L 17.609375 -11.21875 L 8.40625 -11.21875 L 8.40625 -5.59375 L 18.015625 -5.59375 L 18.015625 0 L 2.03125 0 L 2.03125 -27.953125 Z M 18.015625 -27.953125 "/></g></g></g><g fill="#000000" fill-opacity="1"><g transform="translate(29.46409, 135.625014)"><g><path d="M 2.03125 -27.953125 L 12.234375 -27.953125 C 15.078125 -27.953125 17.378906 -27.21875 19.140625 -25.75 C 20.898438 -24.28125 21.78125 -22.144531 21.78125 -19.34375 C 21.78125 -16.539062 20.882812 -14.34375 19.09375 -12.75 C 17.3125 -11.15625 15.023438 -10.359375 12.234375 -10.359375 L 8.40625 -10.359375 L 8.40625 0 L 2.03125 0 Z M 8.40625 -15.453125 L 10.203125 -15.453125 C 11.617188 -15.453125 12.785156 -15.738281 13.703125 -16.3125 C 14.617188 -16.882812 15.078125 -17.828125 15.078125 -19.140625 C 15.078125 -20.472656 14.617188 -21.425781 13.703125 -22 C 12.785156 -22.570312 11.617188 -22.859375 10.203125 -22.859375 L 8.40625 -22.859375 Z M 8.40625 -15.453125 "/></g></g></g><g fill="#000000" fill-opacity="1"><g transform="translate(59.810021, 135.625014)"><g><path d="M 18.015625 -27.953125 L 18.015625 -22.359375 L 8.40625 -22.359375 L 8.40625 -16.796875 L 17.609375 -16.796875 L 17.609375 -11.21875 L 8.40625 -11.21875 L 8.40625 -5.59375 L 18.015625 -5.59375 L 18.015625 0 L 2.03125 0 L 2.03125 -27.953125 Z M 18.015625 -27.953125 "/></g></g></g><g fill="#000000" fill-opacity="1"><g transform="translate(87.243373, 135.625014)"><g><path d="M 2.03125 -27.953125 L 12.03125 -27.953125 C 14.71875 -27.953125 16.90625 -27.234375 18.59375 -25.796875 C 20.289062 -24.359375 21.140625 -22.304688 21.140625 -19.640625 C 21.140625 -17.585938 20.625 -15.863281 19.59375 -14.46875 C 18.570312 -13.082031 17.175781 -12.109375 15.40625 -11.546875 L 25.03125 0 L 16.9375 0 L 8.40625 -11.046875 L 8.40625 0 L 2.03125 0 Z M 8.40625 -15.546875 L 9.140625 -15.546875 C 9.734375 -15.546875 10.234375 -15.554688 10.640625 -15.578125 C 11.046875 -15.597656 11.507812 -15.675781 12.03125 -15.8125 C 12.550781 -15.945312 12.96875 -16.140625 13.28125 -16.390625 C 13.59375 -16.640625 13.863281 -17 14.09375 -17.46875 C 14.320312 -17.945312 14.4375 -18.523438 14.4375 -19.203125 C 14.4375 -19.878906 14.320312 -20.453125 14.09375 -20.921875 C 13.863281 -21.398438 13.59375 -21.765625 13.28125 -22.015625 C 12.96875 -22.265625 12.550781 -22.457031 12.03125 -22.59375 C 11.507812 -22.726562 11.046875 -22.804688 10.640625 -22.828125 C 10.234375 -22.847656 9.734375 -22.859375 9.140625 -22.859375 L 8.40625 -22.859375 Z M 8.40625 -15.546875 "/></g></g></g><g fill="#000000" fill-opacity="1"><g transform="translate(119.282662, 135.625014)"><g><path d="M 18.1875 -27.953125 L 18.1875 -22.359375 L 8.40625 -22.359375 L 8.40625 -16.796875 L 17.453125 -16.796875 L 17.453125 -11.21875 L 8.40625 -11.21875 L 8.40625 0 L 2.03125 0 L 2.03125 -27.953125 Z M 18.1875 -27.953125 "/></g></g></g><g fill="#000000" fill-opacity="1"><g transform="translate(146.275749, 135.625014)"><g><path d="M 0.78125 -13.984375 C 0.78125 -18.023438 2.15625 -21.445312 4.90625 -24.25 C 7.664062 -27.050781 10.988281 -28.453125 14.875 -28.453125 C 18.78125 -28.453125 22.097656 -27.054688 24.828125 -24.265625 C 27.554688 -21.484375 28.921875 -18.054688 28.921875 -13.984375 C 28.921875 -9.898438 27.578125 -6.460938 24.890625 -3.671875 C 22.203125 -0.878906 18.863281 0.515625 14.875 0.515625 C 10.78125 0.515625 7.40625 -0.867188 4.75 -3.640625 C 2.101562 -6.410156 0.78125 -9.859375 0.78125 -13.984375 Z M 7.65625 -13.984375 C 7.65625 -12.515625 7.878906 -11.175781 8.328125 -9.96875 C 8.785156 -8.757812 9.578125 -7.738281 10.703125 -6.90625 C 11.828125 -6.070312 13.21875 -5.65625 14.875 -5.65625 C 17.238281 -5.65625 19.023438 -6.46875 20.234375 -8.09375 C 21.441406 -9.71875 22.046875 -11.679688 22.046875 -13.984375 C 22.046875 -16.265625 21.429688 -18.222656 20.203125 -19.859375 C 18.972656 -21.503906 17.195312 -22.328125 14.875 -22.328125 C 12.570312 -22.328125 10.789062 -21.503906 9.53125 -19.859375 C 8.28125 -18.222656 7.65625 -16.265625 7.65625 -13.984375 Z M 7.65625 -13.984375 "/></g></g></g><g fill="#000000" fill-opacity="1"><g transform="translate(183.767656, 135.625014)"><g><path d="M 2.03125 -27.953125 L 12.03125 -27.953125 C 14.71875 -27.953125 16.90625 -27.234375 18.59375 -25.796875 C 20.289062 -24.359375 21.140625 -22.304688 21.140625 -19.640625 C 21.140625 -17.585938 20.625 -15.863281 19.59375 -14.46875 C 18.570312 -13.082031 17.175781 -12.109375 15.40625 -11.546875 L 25.03125 0 L 16.9375 0 L 8.40625 -11.046875 L 8.40625 0 L 2.03125 0 Z M 8.40625 -15.546875 L 9.140625 -15.546875 C 9.734375 -15.546875 10.234375 -15.554688 10.640625 -15.578125 C 11.046875 -15.597656 11.507812 -15.675781 12.03125 -15.8125 C 12.550781 -15.945312 12.96875 -16.140625 13.28125 -16.390625 C 13.59375 -16.640625 13.863281 -17 14.09375 -17.46875 C 14.320312 -17.945312 14.4375 -18.523438 14.4375 -19.203125 C 14.4375 -19.878906 14.320312 -20.453125 14.09375 -20.921875 C 13.863281 -21.398438 13.59375 -21.765625 13.28125 -22.015625 C 12.96875 -22.265625 12.550781 -22.457031 12.03125 -22.59375 C 11.507812 -22.726562 11.046875 -22.804688 10.640625 -22.828125 C 10.234375 -22.847656 9.734375 -22.859375 9.140625 -22.859375 L 8.40625 -22.859375 Z M 8.40625 -15.546875 "/></g></g></g><g fill="#000000" fill-opacity="1"><g transform="translate(215.806945, 135.625014)"><g><path d="M 25.140625 0 L 23.8125 -16.5625 L 23.640625 -16.5625 L 17.921875 -0.171875 L 14.125 -0.171875 L 8.40625 -16.5625 L 8.234375 -16.5625 L 6.90625 0 L 0.546875 0 L 3.046875 -27.953125 L 9.828125 -27.953125 L 16.015625 -11.828125 L 22.21875 -27.953125 L 29 -27.953125 L 31.5 0 Z M 25.140625 0 "/></g></g></g><g fill="#000000" fill-opacity="1"><g transform="translate(255.635678, 135.625014)"><g><path d="M 16.21875 -27.953125 L 27.5 0 L 20.65625 0 L 18.59375 -5.59375 L 7.953125 -5.59375 L 5.890625 0 L -0.953125 0 L 10.328125 -27.953125 Z M 16.421875 -11.171875 L 13.3125 -19.3125 L 13.25 -19.3125 L 10.125 -11.171875 Z M 16.421875 -11.171875 "/></g></g></g><g fill="#000000" fill-opacity="1"><g transform="translate(289.97793, 135.625014)"><g><path d="M 8.40625 -17.34375 L 8.40625 0 L 2.03125 0 L 2.03125 -27.953125 L 8.40625 -27.953125 L 19.515625 -10.609375 L 19.578125 -10.609375 L 19.578125 -27.953125 L 25.953125 -27.953125 L 25.953125 0 L 19.578125 0 L 8.46875 -17.34375 Z M 8.40625 -17.34375 "/></g></g></g><g fill="#000000" fill-opacity="1"><g transform="translate(325.742615, 135.625014)"><g><path d="M 16.90625 -5.765625 C 17.875 -5.765625 18.816406 -5.910156 19.734375 -6.203125 C 20.648438 -6.492188 21.320312 -6.773438 21.75 -7.046875 L 22.390625 -7.484375 L 25.09375 -2.0625 C 25.007812 -2 24.882812 -1.910156 24.71875 -1.796875 C 24.5625 -1.679688 24.195312 -1.472656 23.625 -1.171875 C 23.050781 -0.867188 22.4375 -0.601562 21.78125 -0.375 C 21.125 -0.144531 20.265625 0.0546875 19.203125 0.234375 C 18.140625 0.421875 17.046875 0.515625 15.921875 0.515625 C 13.328125 0.515625 10.863281 -0.117188 8.53125 -1.390625 C 6.207031 -2.671875 4.332031 -4.429688 2.90625 -6.671875 C 1.488281 -8.910156 0.78125 -11.328125 0.78125 -13.921875 C 0.78125 -15.890625 1.195312 -17.773438 2.03125 -19.578125 C 2.863281 -21.390625 3.972656 -22.9375 5.359375 -24.21875 C 6.753906 -25.507812 8.378906 -26.535156 10.234375 -27.296875 C 12.085938 -28.066406 13.984375 -28.453125 15.921875 -28.453125 C 17.722656 -28.453125 19.382812 -28.238281 20.90625 -27.8125 C 22.4375 -27.382812 23.519531 -26.957031 24.15625 -26.53125 L 25.09375 -25.875 L 22.390625 -20.453125 C 22.234375 -20.585938 21.992188 -20.75 21.671875 -20.9375 C 21.359375 -21.132812 20.726562 -21.390625 19.78125 -21.703125 C 18.832031 -22.023438 17.875 -22.1875 16.90625 -22.1875 C 15.363281 -22.1875 13.984375 -21.9375 12.765625 -21.4375 C 11.546875 -20.945312 10.582031 -20.296875 9.875 -19.484375 C 9.164062 -18.671875 8.625 -17.796875 8.25 -16.859375 C 7.875 -15.921875 7.6875 -14.960938 7.6875 -13.984375 C 7.6875 -11.867188 8.484375 -9.96875 10.078125 -8.28125 C 11.671875 -6.601562 13.945312 -5.765625 16.90625 -5.765625 Z M 16.90625 -5.765625 "/></g></g></g><g fill="#000000" fill-opacity="1"><g transform="translate(359.03501, 135.625014)"><g><path d="M 18.015625 -27.953125 L 18.015625 -22.359375 L 8.40625 -22.359375 L 8.40625 -16.796875 L 17.609375 -16.796875 L 17.609375 -11.21875 L 8.40625 -11.21875 L 8.40625 -5.59375 L 18.015625 -5.59375 L 18.015625 0 L 2.03125 0 L 2.03125 -27.953125 Z M 18.015625 -27.953125 "/></g></g></g><g fill="#000000" fill-opacity="1"><g transform="translate(386.468373, 135.625014)"><g/></g></g><g fill="#000000" fill-opacity="1"><g transform="translate(403.504505, 135.625014)"><g><path d="M 18.015625 -27.953125 L 18.015625 -22.359375 L 8.40625 -22.359375 L 8.40625 -16.796875 L 17.609375 -16.796875 L 17.609375 -11.21875 L 8.40625 -11.21875 L 8.40625 -5.59375 L 18.015625 -5.59375 L 18.015625 0 L 2.03125 0 L 2.03125 -27.953125 Z M 18.015625 -27.953125 "/></g></g></g><g fill="#000000" fill-opacity="1"><g transform="translate(430.937868, 135.625014)"><g><path d="M 8.40625 -17.34375 L 8.40625 0 L 2.03125 0 L 2.03125 -27.953125 L 8.40625 -27.953125 L 19.515625 -10.609375 L 19.578125 -10.609375 L 19.578125 -27.953125 L 25.953125 -27.953125 L 25.953125 0 L 19.578125 0 L 8.46875 -17.34375 Z M 8.40625 -17.34375 "/></g></g></g><g fill="#000000" fill-opacity="1"><g transform="translate(466.70253, 135.625014)"><g><path d="M 27.296875 -15.65625 L 27.296875 -9.59375 C 26.578125 -6.269531 25 -3.753906 22.5625 -2.046875 C 20.125 -0.335938 17.398438 0.515625 14.390625 0.515625 C 10.617188 0.515625 7.40625 -0.894531 4.75 -3.71875 C 2.101562 -6.539062 0.78125 -9.953125 0.78125 -13.953125 C 0.78125 -18.015625 2.078125 -21.445312 4.671875 -24.25 C 7.273438 -27.050781 10.515625 -28.453125 14.390625 -28.453125 C 18.929688 -28.453125 22.523438 -26.859375 25.171875 -23.671875 L 21 -19.109375 C 19.507812 -21.503906 17.429688 -22.703125 14.765625 -22.703125 C 12.804688 -22.703125 11.128906 -21.847656 9.734375 -20.140625 C 8.347656 -18.429688 7.65625 -16.367188 7.65625 -13.953125 C 7.65625 -11.585938 8.347656 -9.5625 9.734375 -7.875 C 11.128906 -6.195312 12.804688 -5.359375 14.765625 -5.359375 C 16.390625 -5.359375 17.804688 -5.847656 19.015625 -6.828125 C 20.222656 -7.804688 20.828125 -9.109375 20.828125 -10.734375 L 14.390625 -10.734375 L 14.390625 -15.65625 Z M 27.296875 -15.65625 "/></g></g></g><g fill="#000000" fill-opacity="1"><g transform="translate(502.568815, 135.625014)"><g><path d="M 8.40625 -27.953125 L 8.40625 0 L 2.03125 0 L 2.03125 -27.953125 Z M 8.40625 -27.953125 "/></g></g></g><g fill="#000000" fill-opacity="1"><g transform="translate(520.790325, 135.625014)"><g><path d="M 8.40625 -17.34375 L 8.40625 0 L 2.03125 0 L 2.03125 -27.953125 L 8.40625 -27.953125 L 19.515625 -10.609375 L 19.578125 -10.609375 L 19.578125 -27.953125 L 25.953125 -27.953125 L 25.953125 0 L 19.578125 0 L 8.46875 -17.34375 Z M 8.40625 -17.34375 "/></g></g></g><g fill="#000000" fill-opacity="1"><g transform="translate(556.555033, 135.625014)"><g><path d="M 18.015625 -27.953125 L 18.015625 -22.359375 L 8.40625 -22.359375 L 8.40625 -16.796875 L 17.609375 -16.796875 L 17.609375 -11.21875 L 8.40625 -11.21875 L 8.40625 -5.59375 L 18.015625 -5.59375 L 18.015625 0 L 2.03125 0 L 2.03125 -27.953125 Z M 18.015625 -27.953125 "/></g></g></g><path stroke-linecap="butt" transform="matrix(0.75, -0.000000000000000093, 0.000000000000000093, 0.75, 20.670458, 89.95485)" fill="none" stroke-linejoin="miter" d="M 0.0018895 1.9977 L 744.876933 1.9977 " stroke="#000000" stroke-width="4" stroke-opacity="1" stroke-miterlimit="4"/></svg>